<?xml version="1.0" encoding="utf-8"?>
<svg height="2500" width="2490" viewBox="0 0 256 256" xmlns="http://www.w3.org/2000/svg">
  <path d="M 0 18.338 C 0 8.216 8.474 0 18.92 0 L 237.08 0 C 247.53 0 256 8.216 256 18.338 L 256 237.665 C 256 247.79 247.53 256 237.08 256 L 18.92 256 C 8.475 256 0 247.791 0 237.668 L 0 18.335 L 0 18.338 Z" style="fill: rgb(223, 244, 255);"/>
  <path d="M 77.796 214.238 L 77.796 98.986 L 39.488 98.986 L 39.488 214.238 L 77.8 214.238 L 77.796 214.238 Z M 58.65 83.253 C 72.006 83.253 80.321 74.403 80.321 63.343 C 80.071 52.031 72.006 43.428 58.904 43.428 C 45.793 43.428 37.23 52.031 37.23 63.342 C 37.23 74.402 45.542 83.252 58.399 83.252 L 58.647 83.252 L 58.65 83.253 Z M 99 214.238 L 137.305 214.238 L 137.305 149.883 C 137.305 146.443 137.555 142.994 138.567 140.537 C 141.335 133.652 147.638 126.525 158.223 126.525 C 172.081 126.525 177.628 137.093 177.628 152.588 L 177.628 214.238 L 215.932 214.238 L 215.932 148.156 C 215.932 112.757 197.036 96.284 171.833 96.284 C 151.17 96.284 142.095 107.833 137.053 115.699 L 137.308 115.699 L 137.308 98.99 L 99.002 98.99 C 99.502 109.802 98.999 214.242 98.999 214.242 L 99 214.238 Z" style="fill: rgb(23, 49, 97);"/>
</svg>